<svg id="Layer_1" data-name="Layer 1" xmlns="http://www.w3.org/2000/svg" xmlns:xlink="http://www.w3.org/1999/xlink" viewBox="0 0 40 20"><defs><style>.cls-1{fill:#fff;}.cls-1,.cls-3{fill-rule:evenodd;}.cls-2{mask:url(#mask);}.cls-3{fill:#231f20;}</style><mask id="mask" x="0" y="4.806" width="40" height="10.387" maskUnits="userSpaceOnUse"><g id="mask-2"><polygon id="path-1" class="cls-1" points="0 4.807 39.999 4.807 39.999 15.194 0 15.194 0 4.807"/></g></mask></defs><g id="Desktop"><g id="home"><g id="Page-1"><g class="cls-2"><path id="Fill-1" class="cls-3" d="M39.433,8.927Q21.42,10.156,3.361,9.864L13.429,5.833c.716-.287.074-1.25-.605-.979L.293,9.872a.556.556,0,0,0,0,.979,51.977,51.977,0,0,0,12.189,4.326c.733.162,1.075-.926.318-1.093a50.86,50.86,0,0,1-9.642-3.165q18.152.288,36.275-.935a.53.53,0,1,0,0-1.057"/></g></g></g></g></svg>