<svg id="Layer_1" data-name="Layer 1" xmlns="http://www.w3.org/2000/svg" xmlns:xlink="http://www.w3.org/1999/xlink" viewBox="0 0 40 20"><defs><style>.cls-1{fill:#fff;}.cls-1,.cls-3{fill-rule:evenodd;}.cls-2{mask:url(#mask);}.cls-3{fill:#231f20;}</style><mask id="mask" x="0" y="2.2" width="40" height="15.599" maskUnits="userSpaceOnUse"><g id="mask-2"><polygon id="path-1" class="cls-1" points="0 2.201 39.999 2.201 39.999 17.8 0 17.8 0 2.201"/></g></mask></defs><g id="Desktop"><g id="home"><g id="Page-1"><g class="cls-2"><path id="Fill-1" class="cls-3" d="M39.966,9.925C39.65,8.6,36.583,7.652,35.528,7.054L27.149,2.288c-.661-.377-1.384.562-.654.977l5.588,3.177c1.394.793,4.108,1.726,5.119,2.914a1.967,1.967,0,0,1,.237.337Q19.031,9.392.618,9.087a.6.6,0,1,0,0,1.19l36.846.607c-.567,1.121-2.668,1.969-3.692,2.585q-2.766,1.665-5.567,3.265c-.729.418-.006,1.356.653.977q3.965-2.274,7.865-4.662c.862-.528,3.613-1.562,3.243-3.124"/></g></g></g></g></svg>